<?xml version="1.0" ?><!DOCTYPE svg  PUBLIC '-//W3C//DTD SVG 1.0//EN'  'http://www.w3.org/TR/2001/REC-SVG-20010904/DTD/svg10.dtd'><svg height="64px" style="shape-rendering:geometricPrecision; text-rendering:geometricPrecision; image-rendering:optimizeQuality; fill-rule:evenodd; clip-rule:evenodd" version="1.0" viewBox="0 0 8643 12572" width="44px" xml:space="preserve" xmlns="http://www.w3.org/2000/svg" xmlns:xlink="http://www.w3.org/1999/xlink"><defs><style type="text/css">
   <![CDATA[
    .fil0 {fill:#27afb7;fill-rule:nonzero}
   ]]>
  </style></defs><g id="Layer_x0020_1"><path class="fil0" d="M8643 4322l0 8054 0 197 -197 0 -8250 0 -197 0 0 -197 0 -10411 0 -197 197 0 785 0 0 -982c0,-202 89,-406 236,-554 139,-140 329,-232 546,-232l397 0c239,0 427,89 561,224 153,154 231,366 231,571l0 974 387 0 0 -776 393 0 0 776 2352 0 5 0c54,0 103,22 139,58l2357 2357c38,38 57,89 57,139l0 0zm-6679 -3339l0 786 595 0 0 -974c0,-107 -39,-217 -116,-294 -64,-64 -158,-107 -283,-107l-397 0c-105,0 -199,46 -268,115 -75,76 -121,178 -121,277l0 982 196 0 0 -786 393 0zm1768 1179l0 1179c0,261 -68,510 -204,691 -134,179 -329,291 -582,291l-1182 0c-264,0 -456,-109 -587,-284 -136,-182 -195,-433 -195,-698l0 -1179 -589 0 0 10018 7857 0 0 -7661 -2161 0c-108,0 -197,-88 -197,-197l0 -5 0 -2156 -2160 0zm-2357 0l0 1179c0,186 36,355 117,464 58,77 146,126 272,126l1182 0c118,0 207,-52 269,-133 83,-110 124,-275 124,-456l0 -1179 -1964 0zm-197 6878l4217 0 0 393 -4217 0 0 -393zm0 -786l6286 0 0 393 -6286 0 0 -393zm0 -786l6286 0 0 393 -6286 0 0 -393zm0 -786l6286 0 0 393 -6286 0 0 -393zm6793 -2557l-1686 -1686 0 1686 1686 0z"/></g></svg>